<svg width="148" height="69" viewBox="0 0 148 69" fill="none" xmlns="http://www.w3.org/2000/svg">
<rect y="38" width="144" height="32" rx="8" transform="rotate(-15 0 38)" fill="#FF6700"/>
<path d="M20.285 49.323C20.7356 51.0046 21.5357 52.1066 22.6853 52.6289C23.8382 53.1457 25.1827 53.1982 26.719 52.7866C28.1673 52.3985 29.2266 51.7915 29.897 50.9655C30.5674 50.1395 30.7797 49.1885 30.5339 48.1126L30.4825 47.9211L28.2243 48.5262L28.269 48.7195C28.375 49.2384 28.2846 49.7108 27.9977 50.1368C27.7108 50.5628 27.114 50.8973 26.2072 51.1403C25.3664 51.3656 24.6329 51.3309 24.0066 51.0364C23.3848 50.7406 22.9282 50.0491 22.6369 48.9618L22.4175 48.143C22.1498 47.1438 22.2103 46.3396 22.5991 45.7306C22.9868 45.1172 23.5966 44.699 24.4286 44.4761C25.1857 44.2732 25.8204 44.2471 26.3325 44.3976C26.8435 44.5438 27.2013 44.9197 27.4061 45.5254L27.4675 45.7283L29.7258 45.1232L29.6732 44.9533C29.3001 43.8077 28.6139 43.0692 27.6146 42.7378C26.614 42.402 25.4226 42.4192 24.0404 42.7896C22.5129 43.1989 21.3793 43.9249 20.6396 44.9676C19.9031 46.0048 19.7566 47.3509 20.2001 49.0061L20.285 49.323ZM37.6419 49.6545L40.4548 48.9008L35.0759 45.8623L33.417 47.1985L37.6419 49.6545ZM31.9164 46.5108L32.3481 48.1219L34.6129 47.515L38.1326 42.0567L35.7754 42.6884L33.653 46.0454L31.9164 46.5108ZM32.2824 43.6243L30.1496 44.1958L32.0162 51.162L34.1489 50.5905L32.2824 43.6243ZM39.8263 45.4458C40.1212 46.5463 40.7751 47.3052 41.7881 47.7226C42.8055 48.1389 43.9921 48.1653 45.3479 47.802C46.7037 47.4388 47.7159 46.8231 48.3845 45.9551C49.0531 45.0872 49.2399 44.1029 48.945 43.0024L48.8884 42.7911C48.5924 41.6862 47.9384 40.9273 46.9266 40.5143C45.9136 40.0969 44.7292 40.0698 43.3734 40.4331C42.0176 40.7964 41.0032 41.4126 40.3302 42.2818C39.6604 43.1453 39.4736 44.1296 39.7697 45.2345L39.8263 45.4458ZM41.9265 44.515C41.7696 43.9296 41.8578 43.4223 42.1911 42.9933C42.5231 42.5599 43.0612 42.2436 43.8051 42.0442C44.549 41.8449 45.1709 41.8505 45.6708 42.0609C46.174 42.2658 46.504 42.661 46.6608 43.2465L46.7864 43.7153C46.9445 44.3051 46.8597 44.8162 46.532 45.2484C46.2075 45.6751 45.6689 45.9892 44.9162 46.1909C44.1635 46.3926 43.5377 46.3904 43.039 46.1844C42.5391 45.9739 42.2101 45.5737 42.0521 44.9838L41.9265 44.515ZM51.9009 48.7779L54.0403 48.2047L53.0849 44.6391C53.4236 44.8644 53.8625 44.9969 54.4015 45.0364C54.9438 45.0704 55.5297 45.0031 56.1591 44.8344C57.2772 44.5348 58.0947 43.9761 58.6116 43.1582C59.1273 42.3359 59.2418 41.3899 58.9552 40.3202L58.8986 40.1089C58.6096 39.0304 58.0302 38.268 57.1604 37.8217C56.2951 37.3741 55.2901 37.3037 54.1456 37.6104C53.5161 37.779 52.9754 38.0325 52.5234 38.3706C52.0703 38.7043 51.7715 39.0509 51.6273 39.4104L51.6207 39.4122L51.3254 38.5217L49.2983 39.0649L51.9009 48.7779ZM52.5919 42.9311L52.0735 40.9964C52.1588 40.6811 52.3652 40.3686 52.6928 40.0591C53.0235 39.744 53.4552 39.5151 53.9879 39.3724C54.7538 39.1671 55.3559 39.178 55.7942 39.405C56.2313 39.6276 56.5241 40.0162 56.6728 40.5709L56.7966 41.0331C56.944 41.5833 56.8803 42.0675 56.6055 42.4855C56.3338 42.898 55.8261 43.2039 55.0821 43.4033C54.5627 43.5425 54.0749 43.5623 53.6189 43.4627C53.1617 43.3587 52.8194 43.1816 52.5919 42.9311ZM59.8994 40.0672C60.1943 41.1677 60.8482 41.9267 61.8612 42.3441C62.8786 42.7603 64.0652 42.7868 65.421 42.4235C66.7769 42.0602 67.7891 41.4445 68.4576 40.5766C69.1262 39.7086 69.3131 38.7243 69.0182 37.6238L68.9616 37.4125C68.6655 36.3076 68.0116 35.5487 66.9998 35.1357C65.9868 34.7183 64.8024 34.6912 63.4465 35.0545C62.0907 35.4178 61.0763 36.034 60.4033 36.9032C59.7336 37.7668 59.5467 38.751 59.8428 39.8559L59.8994 40.0672ZM61.9996 39.1364C61.8427 38.551 61.9309 38.0437 62.2642 37.6147C62.5963 37.1813 63.1343 36.865 63.8782 36.6656C64.6222 36.4663 65.2441 36.4719 65.744 36.6823C66.2471 36.8872 66.5771 37.2824 66.734 37.8679L66.8596 38.3367C67.0176 38.9266 66.9328 39.4376 66.6051 39.8698C66.2807 40.2965 65.7421 40.6106 64.9893 40.8123C64.2366 41.014 63.6109 41.0118 63.1122 40.8058C62.6123 40.5953 62.2833 40.1951 62.1252 39.6053L61.9996 39.1364ZM78.4224 38.9398C79.7298 38.5895 80.6855 38.1329 81.2896 37.57C81.8968 37.0015 82.1132 36.3915 81.9386 35.74C81.8101 35.2602 81.5425 34.9308 81.136 34.752C80.7295 34.5731 80.2123 34.5182 79.5845 34.5874L79.5792 34.5676C80.0978 34.2493 80.4628 33.9298 80.6741 33.6089C80.8897 33.2869 80.9398 32.9102 80.8242 32.4788C80.672 31.911 80.2417 31.5285 79.5331 31.3315C78.8233 31.1301 77.8235 31.2022 76.5337 31.5478C75.1383 31.9217 74.1502 32.4247 73.5694 33.0569C72.9874 33.6846 72.8002 34.3859 73.0078 35.1606L73.0167 35.1936L75.09 34.6381L75.0812 34.6051C74.9962 34.2881 75.0809 33.9965 75.3351 33.7303C75.5925 33.4584 76.0822 33.2258 76.8041 33.0323C77.3808 32.8778 77.8254 32.8294 78.1381 32.8872C78.4541 32.9393 78.6445 33.0865 78.7094 33.3286C78.7731 33.5663 78.7213 33.7783 78.5542 33.9646C78.386 34.1465 78.0905 34.2941 77.6679 34.4074L75.8521 34.8939L76.2201 36.2673L78.2208 35.7312C78.6434 35.618 78.9769 35.5947 79.2212 35.6614C79.4699 35.7268 79.6297 35.8916 79.7004 36.1557C79.77 36.4154 79.6686 36.662 79.3962 36.8954C79.1237 37.1288 78.6463 37.337 77.964 37.5198C77.1409 37.7403 76.5603 37.7921 76.2222 37.6751C75.8842 37.5581 75.6757 37.3521 75.5966 37.0572L75.5878 37.0242L73.5012 37.5832L73.5101 37.6163C73.7283 38.4306 74.2252 38.9557 75.0008 39.1913C75.7808 39.4258 76.9213 39.342 78.4224 38.9398ZM82.7779 35.3594C82.9702 36.0769 83.391 36.5469 84.0403 36.7692C84.6884 36.9871 85.4857 36.9693 86.4322 36.7157C87.2377 36.4999 87.8897 36.2214 88.388 35.8802C88.8852 35.5347 89.1875 35.2013 89.2948 34.88C89.3537 35.0294 89.4314 35.1784 89.5279 35.3271C89.6287 35.4747 89.7235 35.5908 89.8123 35.6755L91.8989 35.1164L91.8705 35.0108C91.7177 34.863 91.5763 34.6697 91.4462 34.4309C91.3162 34.1921 91.2134 33.9319 91.138 33.6501L90.2763 30.4345C90.064 29.6421 89.5718 29.1347 88.7998 28.9122C88.0278 28.6897 87.0431 28.7389 85.8457 29.0597C84.622 29.3876 83.6985 29.8238 83.0753 30.3682C82.4566 30.9115 82.248 31.5595 82.4497 32.3122L82.4674 32.3782L84.554 31.8192L84.5345 31.7465C84.4661 31.4912 84.565 31.2618 84.8314 31.0583C85.1009 30.8493 85.535 30.6646 86.1337 30.5042C86.7455 30.3402 87.2146 30.2947 87.5408 30.3677C87.8671 30.4407 88.0756 30.6467 88.1664 30.9857L88.2814 31.4149L86.1949 31.9739C84.8875 32.3243 83.9401 32.7857 83.3528 33.3583C82.7655 33.9308 82.5739 34.5979 82.7779 35.3594ZM84.8664 34.6229C84.7815 34.3059 84.9053 34.0109 85.2379 33.7378C85.5705 33.4647 86.1021 33.2302 86.8329 33.0344L88.6223 32.5549L88.7921 33.1888C88.89 33.5542 88.7525 33.9213 88.3795 34.2902C88.0066 34.659 87.5097 34.9266 86.8891 35.0929C86.2552 35.2628 85.7829 35.3138 85.4722 35.2461C85.1604 35.174 84.9584 34.9662 84.8664 34.6229ZM91.4519 27.7699L93.3185 34.7361L95.4579 34.1628L94.0177 28.788L97.7286 27.7936L99.1688 33.1685L101.308 32.5952L99.4416 25.6291L91.4519 27.7699ZM103.37 34.9799C103.545 34.9846 103.742 34.9697 103.959 34.9351C104.176 34.9005 104.41 34.8496 104.661 34.7824C105.405 34.583 106.012 34.2318 106.481 33.7286C106.95 33.2255 107.251 32.5953 107.383 31.8381L108.91 23.0919L106.844 23.6457L106.111 28.2015C106.081 28.3888 106.063 28.5776 106.057 28.7678C106.052 28.9581 106.052 29.1609 106.058 29.3764L106.018 29.387C105.92 29.1963 105.816 29.0212 105.708 28.8616C105.598 28.6976 105.483 28.5442 105.365 28.4014L102.472 24.817L100.234 25.4167L105.402 31.4203L105.693 31.3425C105.601 32.0372 105.423 32.5 105.159 32.7311C104.9 32.961 104.533 33.1396 104.057 33.267C103.903 33.3083 103.724 33.3444 103.52 33.3755C103.32 33.4054 103.143 33.4222 102.989 33.4259L103.37 34.9799ZM110.254 26.5747C110.55 27.6796 111.194 28.4437 112.185 28.8671C113.179 29.2848 114.356 29.3114 115.716 28.9469C117.006 28.6013 117.928 28.0734 118.484 27.3632C119.039 26.653 119.222 25.9458 119.033 25.2414L119.01 25.1556L116.891 25.7235L116.912 25.8028C117.004 26.1461 116.926 26.4526 116.677 26.7221C116.427 26.9871 115.959 27.2117 115.272 27.3957C114.48 27.608 113.857 27.6002 113.405 27.3724C112.951 27.1401 112.643 26.7203 112.48 26.1128L112.354 25.644C112.193 25.0409 112.251 24.5275 112.529 24.1039C112.811 23.6791 113.349 23.3605 114.141 23.1482C114.823 22.9654 115.339 22.9263 115.688 23.031C116.036 23.1312 116.255 23.3509 116.346 23.6898L116.372 23.7889L118.498 23.2192L118.45 23.0906C118.216 22.3937 117.694 21.8824 116.885 21.5566C116.079 21.2252 115.031 21.2324 113.742 21.578C112.377 21.9436 111.371 22.5553 110.723 23.413C110.075 24.2706 109.9 25.2541 110.197 26.3634L110.254 26.5747ZM126.373 25.8791L129.186 25.1254L123.807 22.0868L122.148 23.4231L126.373 25.8791ZM120.648 22.7353L121.079 24.3464L123.344 23.7396L126.864 18.2813L124.507 18.9129L122.384 22.27L120.648 22.7353ZM121.014 19.8489L118.881 20.4203L120.747 27.3865L122.88 26.815L121.014 19.8489Z" fill="white"/>
</svg>
